<svg xmlns="http://www.w3.org/2000/svg" viewBox="14.7 3.9 22.3 22.3" fill="none"><path d="M26.2482 4.93164C31.667 4.93164 36.0596 9.3244 36.0597 14.7432C36.0597 20.162 31.667 24.5547 26.2482 24.5547C24.387 24.5547 22.6469 24.0367 21.1642 23.1367L17.6007 24.8213C16.7024 25.2456 15.7374 24.3762 16.0656 23.4385L17.5324 19.2471C16.8338 17.898 16.4366 16.3672 16.4366 14.7432C16.4368 9.32444 20.8294 4.9317 26.2482 4.93164ZM21.8439 13.501C21.1537 13.5012 20.5939 14.0607 20.5939 14.751C20.5941 15.441 21.1538 16.0008 21.8439 16.001C22.5341 16.001 23.0936 15.4411 23.0939 14.751C23.0939 14.0606 22.5342 13.501 21.8439 13.501ZM26.5099 13.501C25.8195 13.501 25.2599 14.0606 25.2599 14.751C25.2602 15.4411 25.8197 16.001 26.5099 16.001C27.1999 16.0008 27.7596 15.441 27.7599 14.751C27.7599 14.0607 27.2001 13.5011 26.5099 13.501ZM31.1749 13.501C30.4846 13.501 29.9249 14.0606 29.9249 14.751C29.9252 15.4411 30.4848 16.001 31.1749 16.001C31.8651 16.001 32.4247 15.4411 32.4249 14.751C32.4249 14.0606 31.8653 13.501 31.1749 13.501Z" fill="currentColor"/></svg>